<svg width="70" height="15" viewBox="0 0 70 15" fill="none" xmlns="http://www.w3.org/2000/svg">
<path d="M8.5 14.46L2.4 7.12002L8.34 0.400022H11.74L5.12 7.70002V6.44002L11.96 14.46H8.5ZM-2.35438e-06 14.46V0.400022H2.72V14.46H-2.35438e-06ZM19.9895 14.46V8.92002C19.9895 8.34669 19.8095 7.88002 19.4495 7.52002C19.0895 7.16002 18.6229 6.98002 18.0495 6.98002C17.6762 6.98002 17.3429 7.06002 17.0495 7.22002C16.7562 7.38002 16.5229 7.60669 16.3495 7.90002C16.1895 8.19335 16.1095 8.53335 16.1095 8.92002L15.0895 8.40002C15.0895 7.64002 15.2495 6.98002 15.5695 6.42002C15.9029 5.84669 16.3562 5.40002 16.9295 5.08002C17.5162 4.76002 18.1762 4.60002 18.9095 4.60002C19.6162 4.60002 20.2495 4.78002 20.8095 5.14002C21.3695 5.48669 21.8095 5.94669 22.1295 6.52002C22.4495 7.08002 22.6095 7.68669 22.6095 8.34002V14.46H19.9895ZM13.4895 14.46V4.80002H16.1095V14.46H13.4895ZM29.26 14.66C28.2867 14.66 27.4067 14.44 26.62 14C25.8467 13.5467 25.2267 12.94 24.76 12.18C24.3067 11.4067 24.08 10.5467 24.08 9.60002C24.08 8.65336 24.3067 7.80669 24.76 7.06002C25.2133 6.30002 25.8333 5.70002 26.62 5.26002C27.4067 4.80669 28.28 4.58002 29.24 4.58002C30.2267 4.58002 31.1067 4.80669 31.88 5.26002C32.6667 5.70002 33.2867 6.30002 33.74 7.06002C34.1933 7.80669 34.42 8.65336 34.42 9.60002C34.42 10.5467 34.1933 11.4067 33.74 12.18C33.2867 12.94 32.6667 13.5467 31.88 14C31.1067 14.44 30.2333 14.66 29.26 14.66ZM29.24 12.22C29.7333 12.22 30.1667 12.1134 30.54 11.9C30.9267 11.6734 31.22 11.3667 31.42 10.98C31.6333 10.58 31.74 10.1267 31.74 9.62002C31.74 9.11336 31.6333 8.66669 31.42 8.28002C31.2067 7.89335 30.9133 7.59335 30.54 7.38002C30.1667 7.15336 29.7333 7.04002 29.24 7.04002C28.76 7.04002 28.3333 7.15336 27.96 7.38002C27.5867 7.59335 27.2933 7.89335 27.08 8.28002C26.8667 8.66669 26.76 9.11336 26.76 9.62002C26.76 10.1267 26.8667 10.58 27.08 10.98C27.2933 11.3667 27.5867 11.6734 27.96 11.9C28.3333 12.1134 28.76 12.22 29.24 12.22ZM37.5267 14.46V0.780022H40.1467V14.46H37.5267ZM35.2667 7.10002V4.80002H48.3867V7.10002H35.2667ZM43.5067 14.46V0.780022H46.1267V14.46H43.5067ZM54.2619 14.66C53.2485 14.66 52.3485 14.4467 51.5619 14.02C50.7752 13.58 50.1485 12.98 49.6819 12.22C49.2285 11.46 49.0019 10.5934 49.0019 9.62002C49.0019 8.66002 49.2219 7.80669 49.6619 7.06002C50.1152 6.30002 50.7285 5.70002 51.5019 5.26002C52.2752 4.80669 53.1352 4.58002 54.0819 4.58002C55.0152 4.58002 55.8352 4.79335 56.5419 5.22002C57.2619 5.63335 57.8219 6.20669 58.2219 6.94002C58.6352 7.66002 58.8419 8.48002 58.8419 9.40002C58.8419 9.57336 58.8285 9.75336 58.8019 9.94002C58.7885 10.1134 58.7552 10.3134 58.7019 10.54L50.5819 10.56V8.60002L57.4819 8.58002L56.4219 9.40002C56.3952 8.82669 56.2885 8.34669 56.1019 7.96002C55.9285 7.57336 55.6685 7.28002 55.3219 7.08002C54.9885 6.86669 54.5752 6.76002 54.0819 6.76002C53.5619 6.76002 53.1085 6.88002 52.7219 7.12002C52.3352 7.34669 52.0352 7.67335 51.8219 8.10002C51.6219 8.51336 51.5219 9.00669 51.5219 9.58002C51.5219 10.1667 51.6285 10.68 51.8419 11.12C52.0685 11.5467 52.3885 11.88 52.8019 12.12C53.2152 12.3467 53.6952 12.46 54.2419 12.46C54.7352 12.46 55.1819 12.38 55.5819 12.22C55.9819 12.0467 56.3285 11.7934 56.6219 11.46L58.1619 13C57.6952 13.5467 57.1219 13.96 56.4419 14.24C55.7752 14.52 55.0485 14.66 54.2619 14.66ZM64.5422 14.66C63.6489 14.66 62.8489 14.44 62.1422 14C61.4355 13.56 60.8755 12.96 60.4622 12.2C60.0622 11.44 59.8622 10.5867 59.8622 9.64002C59.8622 8.68002 60.0622 7.82002 60.4622 7.06002C60.8755 6.30002 61.4289 5.70002 62.1222 5.26002C62.8289 4.82002 63.6355 4.60002 64.5422 4.60002C65.2355 4.60002 65.8555 4.74002 66.4022 5.02002C66.9622 5.30002 67.4089 5.69335 67.7422 6.20002C68.0889 6.69335 68.2755 7.25335 68.3022 7.88002V11.32C68.2755 11.9467 68.0955 12.5134 67.7622 13.02C67.4289 13.5267 66.9822 13.9267 66.4222 14.22C65.8622 14.5134 65.2355 14.66 64.5422 14.66ZM64.9822 12.24C65.4755 12.24 65.9022 12.1334 66.2622 11.92C66.6355 11.6934 66.9222 11.3867 67.1222 11C67.3355 10.6 67.4422 10.14 67.4422 9.62002C67.4422 9.11336 67.3355 8.66669 67.1222 8.28002C66.9222 7.88002 66.6355 7.57335 66.2622 7.36002C65.9022 7.13336 65.4822 7.02002 65.0022 7.02002C64.5089 7.02002 64.0755 7.13336 63.7022 7.36002C63.3422 7.58669 63.0555 7.89335 62.8422 8.28002C62.6422 8.66669 62.5422 9.11336 62.5422 9.62002C62.5422 10.14 62.6422 10.6 62.8422 11C63.0555 11.3867 63.3489 11.6934 63.7222 11.92C64.0955 12.1334 64.5155 12.24 64.9822 12.24ZM69.9022 14.46H67.3022V11.86L67.7222 9.50002L67.2822 7.18002V2.09808e-05H69.9022V14.46Z" fill="#9E61FA"/>
</svg>
